# xmcd CD database file
#
# Track frame offsets:
#	150
#	12600
#	24225
#	35775
#	53400
#	65925
#	80700
#	88725
#	100800
#	113850
#	128025
#	137250
#	148725
#	159750
#	170325
#	183000
#	190950
#	205725
#	219225
#	228600
#	241875
#	257175
#
# Disc length: 3599 seconds
#
# Revision: 0
# Processed by: cddbd v1.5.2PL0 Copyright (c) Steve Scherf et al.
# Submitted via: CDex 1.70beta2
#
DISCID=2e0e0d16
DTITLE=johnny cash - alle tiders - walk the line
DYEAR=1900
DGENRE=Country
TTITLE0=ring of fire
TTITLE1=i walk the line
TTITLE2=a thing called love
TTITLE3=sunday morning coming down
TTITLE4=folsom prison blues
TTITLE5=home of the blues (album version)
TTITLE6=guess things happen that way (album version)
TTITLE7=the ways of a woman in love
TTITLE8=ballad of ira hayes (album version)
TTITLE9=tennesssee flat top box
TTITLE10=i got stripes
TTITLE11=get rhythm
TTITLE12=cry, cry, cry
TTITLE13=hey porter
TTITLE14=ballad of a teenage queen
TTITLE15=five feet high and rising
TTITLE16=long black veil
TTITLE17=i still miss someone
TTITLE18=blue train
TTITLE19=(there'll be) peace in the valley (for me)
TTITLE20=the night hank williams came to town
TTITLE21=family bible
EXTD=
EXTT0=
EXTT1=
EXTT2=
EXTT3=
EXTT4=
EXTT5=
EXTT6=
EXTT7=
EXTT8=
EXTT9=
EXTT10=
EXTT11=
EXTT12=
EXTT13=
EXTT14=
EXTT15=
EXTT16=
EXTT17=
EXTT18=
EXTT19=
EXTT20=
EXTT21=
PLAYORDER=
